<svg width="198" height="155" viewBox="0 0 198 155" fill="none" xmlns="http://www.w3.org/2000/svg">
<path d="M178.778 190L178.079 189.016C174.496 183.818 173.65 178.188 172.824 172.746C172.026 167.43 171.264 162.406 168.192 157.662C165.393 154.725 161.951 153.608 158.305 152.422C156.906 151.962 155.437 151.487 154.002 150.894C147.271 148.103 142.247 144.615 136.769 140.199C129.982 133.668 123.804 126.398 117.828 119.358C114.33 115.249 110.768 111.049 107.06 106.967C106.78 111.909 106.04 116.814 104.849 121.619C100.077 132.273 98.8945 144.182 97.761 155.694C97.5581 157.787 97.3482 159.881 97.1243 161.904L97.0613 162.525L96.5645 162.141C86.1321 154.159 77.323 149.673 67.1075 147.148C66.1489 146.945 65.1693 146.764 64.1968 146.575C56.5981 145.124 49.4193 143.75 45.3051 136.222C40.4072 127.814 39.4906 117.656 38.63 107.832C38.4761 106.144 38.3291 104.477 38.1682 102.844C38.0493 101.902 37.9303 100.946 37.8184 99.9834C36.7548 91.1924 35.6563 82.1015 30.7725 74.4966C27.7918 71.0081 24.0554 67.9592 20.445 65.0359C19.0456 63.8986 17.5833 62.7265 16.2049 61.5474C10.8011 56.8563 5.78659 51.7371 1.21047 46.2399L0 44.7957L1.65127 45.7097C12.0697 51.4936 22.9639 55.7356 36.9578 59.4682C48.9155 63.3614 56.934 67.8406 64.6236 74.9152C70.445 79.6595 76.9732 83.7132 83.2844 87.6272C89.2108 91.3111 95.3471 95.1135 100.938 99.5229C102.827 101.393 104.667 103.318 106.472 105.272C106.724 100.904 106.766 96.488 106.815 92.1413C106.871 86.9435 106.934 81.5712 107.34 76.4781C107.48 75.7036 107.62 74.9641 107.753 74.2105C109.446 64.8544 111.363 54.2565 122.845 51.8424C132.641 49.2958 139.015 45.1166 142.912 38.6909C146.509 31.7558 149.853 24.5347 153.093 17.5507C154.072 15.4297 155.057 13.3111 156.045 11.1947C160.314 4.4201 164.708 -2.54291 175.084 0.917662L175.266 0.980463L175.308 1.16883C175.707 2.87121 176.12 4.47591 176.511 6.0527C177.988 11.8226 179.268 16.8042 178.813 22.8532C178.219 27.9534 179.926 34.5256 181.437 40.2956C181.962 42.3119 182.459 44.2236 182.837 45.8771L189.379 77.0781C190.624 83.1271 191.702 89.3087 192.744 95.2879C193.598 100.172 194.48 105.265 195.452 110.233L195.522 110.602C198.23 124.256 199.587 131.108 194.962 144.699C193.465 148.083 191.695 151.536 189.827 155.164C184.453 165.63 178.366 177.532 178.743 188.744L178.778 190ZM107.151 106.005C111.034 110.246 114.757 114.628 118.395 118.905C124.356 125.931 130.521 133.194 137.287 139.675C142.695 144.036 147.67 147.51 154.324 150.252C155.724 150.831 157.179 151.306 158.578 151.759C162.315 152.973 165.841 154.118 168.794 157.236C171.991 162.155 172.796 167.485 173.573 172.641C174.328 177.658 175.112 182.828 178.051 187.614C178.128 176.59 184.012 165.099 189.246 154.913C191.114 151.264 192.884 147.817 194.361 144.482C198.916 131.101 197.565 124.305 194.885 110.777L194.815 110.4C193.836 105.425 192.954 100.353 192.101 95.4414C191.065 89.4691 190.001 83.2945 188.742 77.2595L182.137 46.0516C181.787 44.391 181.29 42.4863 180.738 40.47C179.212 34.6163 177.491 27.9882 178.093 22.7625C178.541 16.8461 177.274 11.9133 175.819 6.20619C175.434 4.70615 175.035 3.16425 174.65 1.52466C164.931 -1.62194 160.712 5.06895 156.64 11.5366C155.668 13.6297 154.688 15.7228 153.701 17.8158C150.462 24.7928 147.11 32.0349 143.507 39.0048C139.498 45.619 133.012 49.8959 122.985 52.4913C111.951 54.8146 110.153 64.7219 108.417 74.3082C108.284 75.0547 108.151 75.8013 108.012 76.5408C107.613 81.5782 107.55 86.9365 107.494 92.1204C107.487 96.7391 107.438 101.393 107.151 106.005ZM2.97369 47.2307C7.18217 52.1557 11.7571 56.7573 16.6597 60.9962C18.0591 62.1753 19.4584 63.3474 20.8578 64.4847C24.4962 67.4289 28.2606 70.4709 31.3112 74.078C36.3 81.8503 37.4126 91.025 38.4831 99.8927C38.602 100.856 38.714 101.804 38.8329 102.76C39.0009 104.4 39.1478 106.074 39.2947 107.763C40.1553 117.53 41.037 127.591 45.8858 135.866C49.8741 143.122 56.899 144.461 64.3297 145.885C65.3093 146.066 66.2889 146.255 67.2614 146.457C77.428 148.976 86.1951 153.399 96.4946 161.206C96.6975 159.357 96.8794 157.487 97.0613 155.625C98.2088 144.057 99.3913 132.091 104.191 121.389C105.42 116.422 106.172 111.35 106.437 106.242C104.499 104.149 102.519 102.056 100.497 100.039C94.9623 95.6856 88.8469 91.8901 82.9345 88.2203C76.6023 84.2922 70.0602 80.2247 64.1898 75.4385C56.5561 68.4267 48.6216 63.9963 36.7688 60.138C23.4607 56.6007 12.9443 52.589 2.97369 47.2307Z" fill="#AAB1C0"/>
<path d="M168.842 157.516L168.142 157.432C169.101 149.98 169.493 146.904 167.961 138.873C166.505 131.15 166.274 123.147 166.05 115.417C166.015 114.14 165.98 112.863 165.938 111.593C165.896 109.877 165.854 108.154 165.819 106.437C165.631 98.1068 165.435 89.4832 164.812 81.0342C163.937 73.3595 162.951 65.5663 161.936 57.6195L158.976 34.5119C157.892 26.307 156.947 18.9463 156.094 12.0251L156.793 11.9414C157.654 18.8625 158.592 26.2163 159.676 34.4211L162.636 57.5358C163.65 65.4825 164.637 73.2549 165.519 80.9714C166.141 89.4553 166.337 98.0789 166.526 106.423C166.559 108.14 166.598 109.856 166.645 111.572C166.687 112.842 166.722 114.119 166.757 115.396C166.981 123.105 167.212 131.073 168.653 138.748C170.242 146.883 169.822 149.994 168.842 157.516Z" fill="#AAB1C0"/>
<path d="M136.656 139.94C136.559 137.038 136.656 134.91 136.81 132.21C136.929 129.893 137.062 127.27 137.111 123.433C137.167 117.614 137.174 111.697 137.174 105.99V99.0482C137.223 92.2806 137.272 85.2757 137.566 78.3894V78.3336C137.895 70.7985 138.014 68.2589 138.651 63.0332C139.047 59.751 139.61 56.4909 140.337 53.2654C140.484 52.5677 140.638 51.87 140.806 51.0468L141.037 49.9374C141.828 46.415 142.422 42.8512 142.814 39.2627L143.513 39.3394C143.119 42.9512 142.524 46.5383 141.729 50.0839L141.554 51.1235C141.386 51.9328 141.232 52.6654 141.086 53.3492C140.361 56.5607 139.801 59.8068 139.406 63.075C138.77 68.2729 138.658 70.8055 138.329 78.3266V78.4034C138.035 85.2757 137.986 92.2666 137.937 99.0342V105.976C137.937 111.697 137.937 117.614 137.874 123.419C137.825 127.27 137.692 129.9 137.566 132.224C137.433 134.91 137.321 137.024 137.419 139.898L136.656 139.94Z" fill="#AAB1C0"/>
<path d="M101.09 99.8304L100.391 99.7885C100.524 97.814 100.622 96.1954 100.712 94.6744C100.873 92.0511 101.013 89.7905 101.272 86.5114C101.534 82.3857 102.019 78.2772 102.728 74.204C103.22 70.7138 104.126 67.2943 105.428 64.0177C106.828 60.4246 107.723 58.9454 109.746 56.7965C111.768 54.6476 113.167 54.0058 115.847 53.2313C117.81 52.6757 119.812 52.2675 121.836 52.0104L122.697 51.8848L122.802 52.5825L121.941 52.7081C119.946 52.9559 117.974 53.3595 116.043 53.9151C113.44 54.6616 112.264 55.143 110.256 57.2849C108.248 59.4269 107.458 60.7734 106.058 64.2619C104.773 67.498 103.881 70.8755 103.399 74.3226C102.69 78.3719 102.206 82.4574 101.951 86.5602C101.692 89.8254 101.552 92.086 101.391 94.7093C101.321 96.2372 101.223 97.8699 101.09 99.8304Z" fill="#AAB1C0"/>
<path d="M107.271 76.6242C104.32 74.5365 101.203 72.6931 97.9506 71.1124C94.2632 69.3053 92.528 68.7123 89.4913 68.203C87.1139 67.7392 84.6689 67.7392 82.2915 68.203C80.0707 68.5048 77.9022 69.1105 75.8473 70.003C73.929 70.7693 72.0596 71.6524 70.2498 72.6473L70.0609 72.745L68.4446 73.5962C67.1781 74.2939 66.1706 74.8032 64.6103 75.5358L64.3164 74.9008C65.8627 74.2031 66.8563 73.652 68.1157 72.9822L69.732 72.131L69.9279 72.0263C71.7658 71.0171 73.6658 70.1246 75.6164 69.3542C77.7208 68.4417 79.9409 67.822 82.2145 67.5123C84.6685 67.0496 87.1888 67.0614 89.6383 67.5471C92.7519 68.0704 94.5361 68.6774 98.2865 70.5193C101.569 72.1208 104.714 73.9875 107.69 76.1009L107.271 76.6242Z" fill="#AAB1C0"/>
<path d="M103.981 121.486C100 118.054 96.7747 116.044 92.3176 113.26L88.8192 111.056L88.2174 110.679C81.9202 106.695 78.4847 104.497 73.314 100.179C68.1432 95.86 66.0302 93.5646 62.8186 88.6946C61.094 86.0933 59.5802 83.359 58.2916 80.5177C57.7458 79.4013 57.1931 78.2432 56.4864 76.8617C54.1284 72.2569 52.4561 69.2778 47.9501 66.1451C44.6722 63.8328 41.1332 61.9126 37.4058 60.424L36.748 60.131L37.0349 59.4961L37.6926 59.7822C41.4609 61.2876 45.0377 63.2313 48.3489 65.573C52.897 68.7336 54.6952 71.8523 57.1091 76.5478C57.8088 77.9432 58.3755 79.0943 58.9213 80.2176C60.2053 83.0264 61.7048 85.7322 63.4063 88.3109C66.5829 93.111 68.619 95.3367 73.7758 99.6415C78.9325 103.946 82.354 106.123 88.6093 110.107L89.204 110.491C90.4704 111.293 91.6319 112.012 92.7024 112.688C97.1805 115.479 100.399 117.509 104.443 120.984L103.981 121.486Z" fill="#AAB1C0"/>
<path d="M68.0319 146.248L67.4512 145.85C68.7246 143.989 69.9887 142.164 71.2435 140.373C77.8556 130.85 84.1109 121.856 88.6728 110.63C90.9119 103.514 92.3322 96.1322 93.7036 89.0017C94.8581 82.9876 96.0546 76.7711 97.7409 70.7152C101.036 62.5033 104.738 53.2309 115.8 53.2309H115.947C117.346 53.2309 118.816 53.2309 120.257 53.2309C127.219 53.2309 134.419 53.2798 141.059 50.7541C148.629 47.5377 153.758 41.0213 158.719 34.7071L159.069 34.2676C159.979 33.1931 160.881 31.9303 161.868 30.5977C165.863 25.0161 170.831 18.1299 178.66 22.5184L178.317 23.1324C171.013 19.0439 166.423 25.3999 162.413 31.0024C161.448 32.3489 160.531 33.6257 159.615 34.7071L159.272 35.1397C154.255 41.5096 149.07 48.1029 141.325 51.396C134.559 53.9565 127.282 53.9147 120.25 53.9147C118.816 53.9147 117.381 53.9147 115.947 53.9147H115.814C105.228 53.9147 101.603 62.9498 98.3986 70.9245C96.7333 76.9177 95.5438 83.1202 94.3893 89.1203C92.9899 96.2787 91.5906 103.688 89.3306 110.868C84.7266 122.191 78.4573 131.212 71.8382 140.771C70.5741 142.566 69.3054 144.392 68.0319 146.248Z" fill="#AAB1C0"/>
<path d="M46.6561 135.545L46.1523 135.056C56.4735 124.34 65.5563 112.503 73.2304 99.767C76.414 93.9482 79.3318 87.8713 82.1585 81.9967C84.4115 77.3012 86.7485 72.4452 89.2114 67.7358C92.9128 60.0611 100.896 55.8261 110.034 56.7261C116.059 57.3122 122.048 58.8192 127.848 60.2146C131.529 61.1216 135.335 62.0496 139.099 62.7473C147.184 64.0541 155.458 62.1095 162.105 57.3401L182.32 45.7305L182.669 46.3305L162.476 57.8773C159.115 60.2907 155.31 62.0191 151.278 62.9637C147.247 63.9083 143.068 64.0505 138.981 63.3822C135.188 62.6845 131.375 61.7495 127.681 60.8495C121.908 59.4541 115.94 57.968 109.964 57.361C101.127 56.4959 93.4166 60.5635 89.8341 67.9869C87.3712 72.7034 85.0412 77.5523 82.7882 82.2478C79.9895 88.1294 77.0368 94.2063 73.8392 100.06C66.1329 112.862 57.0152 124.764 46.6561 135.545Z" fill="#AAB1C0"/>
<path d="M39.2329 102.963L39.0859 102.265C49.1405 100.172 56.0675 94.4302 62.8755 88.2347C65.1215 85.8276 67.3605 83.288 69.5226 80.8251C73.4758 76.339 77.562 71.6993 81.9911 67.5689C89.1699 60.5013 96.4047 61.5478 105.851 63.8014C112.426 66.2635 118.872 69.0579 125.162 72.1737C129.36 74.1761 133.726 76.2413 138.092 78.0762C147.888 81.5019 154.801 82.8485 165.129 80.6716C173.833 79.2065 181.634 77.9576 189.002 76.8413L189.107 77.539C181.746 78.6483 173.945 79.9042 165.254 81.3624C154.843 83.5601 147.587 82.1368 137.848 78.7321C133.439 76.8901 129.08 74.818 124.861 72.8086C118.655 69.8643 112.267 66.8154 105.655 64.4781C96.4677 62.2874 89.4008 61.2548 82.4739 68.0782C78.0588 72.2086 73.9866 76.8343 70.0473 81.3345C67.8783 83.7973 65.6393 86.3439 63.3653 88.7789C56.4663 95.0302 49.4554 100.828 39.2329 102.963Z" fill="#AAB1C0"/>
<path d="M171.193 112.039C169.563 112.039 167.926 112.004 166.295 111.928C154.254 111.383 146.06 106.534 137.349 100.765C133.151 97.6458 129.051 94.3109 125.07 91.0875C118.003 85.3804 110.705 79.4779 102.889 74.594C94.3741 70.1567 86.2787 65.9845 75.7833 69.9613C74.2999 70.5962 72.7886 71.3567 71.1933 72.0893C66.5473 74.3219 61.7335 76.6313 56.7796 77.0429H56.7027C54.6596 76.7778 52.6025 76.4638 50.6223 76.1638C44.2341 75.201 38.2098 74.287 31.7656 74.601V73.9033C38.2798 73.5823 44.3601 74.5033 50.7623 75.4731C52.7284 75.7731 54.7645 76.0801 56.7936 76.3452C61.6075 75.9336 66.3444 73.6591 70.9274 71.4614C72.5297 70.6869 74.041 69.9613 75.5594 69.3125C86.3556 65.217 94.556 69.459 103.246 73.9521C111.118 78.836 118.437 84.7873 125.517 90.5084C129.492 93.7248 133.606 97.0528 137.762 100.151C146.676 106.088 154.457 110.686 166.33 111.223C173.915 111.586 181.605 111 189.042 110.428C191.058 110.274 193.073 110.114 195.088 109.981L195.137 110.679C193.122 110.811 191.114 110.965 189.098 111.125C183.228 111.579 177.239 112.039 171.193 112.039Z" fill="#AAB1C0"/>
<path d="M194.417 144.894C187.665 139.584 179.262 139.403 171.131 139.228L168.332 139.159C155.367 139.675 145.865 131.805 137.252 123.691C133.453 119.742 129.695 115.688 126.057 111.767C118.255 103.346 110.195 94.6388 101.407 86.7967C91.6112 79.5965 82.4592 74.4405 69.8088 72.7451C62.8118 72.3893 56.4306 69.7032 50.2174 67.1147L47.9854 66.1798C40.3867 64.4844 32.5921 63.5704 25.0005 62.6913C22.4186 62.3913 19.8227 62.0843 17.2129 61.7495L17.3038 61.0518C19.9067 61.3867 22.5026 61.6867 25.0844 61.9937C32.6691 62.8727 40.4777 63.7937 48.1743 65.4821C48.9789 65.81 49.7276 66.124 50.4693 66.438C56.6056 69.0055 62.9518 71.6637 69.8298 72.0195C82.6551 73.7289 91.8841 78.9337 101.806 86.2246C110.643 94.1086 118.717 102.823 126.526 111.258C130.157 115.179 133.908 119.233 137.721 123.161C146.565 131.491 155.563 138.949 168.304 138.426L171.145 138.496C179.388 138.67 187.938 138.859 194.844 144.315L194.417 144.894Z" fill="#AAB1C0"/>
</svg>
